#N canvas 3 22 1276 756 10;
#X declare -lib mrpeach;
#X obj 8 79 udpreceive 9000;
#X obj 9 13 import mrpeach;
#X obj 8 99 unpackOSC;
#X obj 8 119 routeOSC /wii;
#X obj 8 209 routeOSC /0 /1 /2 /3;
#X floatatom 47 231 5 0 0 0 - - -;
#X text 45 247 roll;
#X floatatom 88 232 5 0 0 0 - - -;
#X floatatom 137 238 5 0 0 0 - - -;
#X text 135 253 accel;
#X obj 815 203 routeOSC /1 /2 /A /B /Down /Right /Up /Left /Home /Minus
/Plus;
#X obj 815 243 bng 15 250 50 0 empty empty empty 17 7 0 10 -262144
-1 -1;
#X obj 845 243 bng 15 250 50 0 empty empty empty 17 7 0 10 -262144
-1 -1;
#X obj 875 243 bng 15 250 50 0 empty empty empty 17 7 0 10 -262144
-1 -1;
#X obj 8 139 routeOSC /1;
#X obj 8 160 routeOSC /accel;
#X obj 8 182 routeOSC /pry;
#X text 87 249 yaw;
#X obj 815 156 routeOSC /button;
#X obj 554 1014 dac~;
#X obj 905 240 f;
#X obj 940 258 + 1;
#X msg 940 371 bang;
#X msg 959 394 clear;
#X obj 940 418 oneshot;
#X obj 940 301 sel 0 1;
#X obj 940 279 mod 2;
#X text 978 446 atack;
#X text 1003 474 release;
#X obj 940 500 line~;
#X msg 940 448 1 10;
#X text 66 546 c#;
#X text 155 547 D;
#X text 334 556 E;
#X text 422 551 f;
#X text 601 830 f#;
#X text 632 829 G;
#X text 668 832 G#;
#X text 701 831 A;
#X text 743 832 A#;
#X text 771 829 B;
#X text 805 828 C;
#X text 15 251 pitch;
#X obj 946 326 send on;
#X obj 972 351 send off;
#X obj 551 925 osc~;
#X obj 551 874 mtof;
#X obj 551 952 *~;
#X msg -55 545 60;
#X msg 39 547 61;
#X msg 308 555 64;
#X msg 394 552 65;
#X msg 603 848 66;
#X msg 636 847 67;
#X msg 671 850 68;
#X msg 704 849 69;
#X msg 742 848 70;
#X msg 776 847 71;
#X msg 808 846 72;
#X msg 959 477 0 60;
#X floatatom 8 232 5 0 0 0 - - -;
#X obj 287 226 abs;
#X obj 287 246 * 10;
#X text -27 544 C;
#X floatatom 650 909 5 0 0 0 - - -;
#X obj 287 266 int;
#X obj 794 473 send BangNotaWii;
#X text 314 269 RotacionAcelerometro;
#N canvas 44 208 450 300 selector 0;
#X obj 24 57 sel 0 1;
#X obj 58 111 receive BangNotaWii;
#X msg 43 81 1;
#X obj 43 152 &&;
#X msg 58 132 1;
#X text 72 79 necesitamos leer la poscion caliente del boton del control
;
#X obj 24 34 inlet;
#X obj 43 178 outlet;
#X connect 0 1 2 0;
#X connect 1 0 4 0;
#X connect 2 0 3 0;
#X connect 3 0 7 0;
#X connect 4 0 3 1;
#X connect 6 0 0 0;
#X restore -55 521 pd selector;
#X obj -55 501 == 0;
#N canvas 44 208 450 300 selector 0;
#X obj 24 57 sel 0 1;
#X obj 58 111 receive BangNotaWii;
#X msg 43 81 1;
#X obj 43 152 &&;
#X msg 58 132 1;
#X text 72 79 necesitamos leer la poscion caliente del boton del control
;
#X obj 24 34 inlet;
#X obj 43 178 outlet;
#X connect 0 1 2 0;
#X connect 1 0 4 0;
#X connect 2 0 3 0;
#X connect 3 0 7 0;
#X connect 4 0 3 1;
#X connect 6 0 0 0;
#X restore 39 524 pd selector;
#X obj 39 504 == 1;
#N canvas 44 208 450 300 selector 0;
#X obj 24 57 sel 0 1;
#X obj 58 111 receive BangNotaWii;
#X msg 43 81 1;
#X obj 43 152 &&;
#X msg 58 132 1;
#X text 72 79 necesitamos leer la poscion caliente del boton del control
;
#X obj 24 34 inlet;
#X obj 43 178 outlet;
#X connect 0 1 2 0;
#X connect 1 0 4 0;
#X connect 2 0 3 0;
#X connect 3 0 7 0;
#X connect 4 0 3 1;
#X connect 6 0 0 0;
#X restore 128 525 pd selector;
#X obj 128 505 == 2;
#X msg 128 548 62;
#N canvas 44 208 450 300 selector 0;
#X obj 24 57 sel 0 1;
#X obj 58 111 receive BangNotaWii;
#X msg 43 81 1;
#X obj 43 152 &&;
#X msg 58 132 1;
#X text 72 79 necesitamos leer la poscion caliente del boton del control
;
#X obj 24 34 inlet;
#X obj 43 178 outlet;
#X connect 0 1 2 0;
#X connect 1 0 4 0;
#X connect 2 0 3 0;
#X connect 3 0 7 0;
#X connect 4 0 3 1;
#X connect 6 0 0 0;
#X restore 214 524 pd selector;
#N canvas 44 208 450 300 selector 0;
#X obj 24 57 sel 0 1;
#X obj 58 111 receive BangNotaWii;
#X msg 43 81 1;
#X obj 43 152 &&;
#X msg 58 132 1;
#X text 72 79 necesitamos leer la poscion caliente del boton del control
;
#X obj 24 34 inlet;
#X obj 43 178 outlet;
#X connect 0 1 2 0;
#X connect 1 0 4 0;
#X connect 2 0 3 0;
#X connect 3 0 7 0;
#X connect 4 0 3 1;
#X connect 6 0 0 0;
#X restore 308 527 pd selector;
#N canvas 44 208 450 300 selector 0;
#X obj 24 57 sel 0 1;
#X obj 58 111 receive BangNotaWii;
#X msg 43 81 1;
#X obj 43 152 &&;
#X msg 58 132 1;
#X text 72 79 necesitamos leer la poscion caliente del boton del control
;
#X obj 24 34 inlet;
#X obj 43 178 outlet;
#X connect 0 1 2 0;
#X connect 1 0 4 0;
#X connect 2 0 3 0;
#X connect 3 0 7 0;
#X connect 4 0 3 1;
#X connect 6 0 0 0;
#X restore 397 528 pd selector;
#X obj 214 504 == 3;
#X obj 308 507 == 4;
#X obj 397 508 == 5;
#X msg 214 546 63;
#X text 241 545 D#;
#X connect 0 0 2 0;
#X connect 2 0 3 0;
#X connect 3 0 14 0;
#X connect 4 0 60 0;
#X connect 4 1 5 0;
#X connect 4 1 61 0;
#X connect 4 2 7 0;
#X connect 4 3 8 0;
#X connect 10 0 11 0;
#X connect 10 1 12 0;
#X connect 10 2 13 0;
#X connect 10 3 20 0;
#X connect 14 0 15 0;
#X connect 14 0 18 0;
#X connect 15 0 16 0;
#X connect 16 0 4 0;
#X connect 18 0 10 0;
#X connect 20 0 21 0;
#X connect 21 0 20 1;
#X connect 21 0 26 0;
#X connect 22 0 24 0;
#X connect 23 0 24 0;
#X connect 23 0 59 0;
#X connect 24 0 30 0;
#X connect 24 0 66 0;
#X connect 25 0 22 0;
#X connect 25 0 43 0;
#X connect 25 1 23 0;
#X connect 25 1 44 0;
#X connect 26 0 25 0;
#X connect 29 0 47 1;
#X connect 30 0 29 0;
#X connect 45 0 47 0;
#X connect 46 0 45 0;
#X connect 47 0 19 0;
#X connect 47 0 19 1;
#X connect 48 0 46 0;
#X connect 49 0 46 0;
#X connect 50 0 46 0;
#X connect 51 0 46 0;
#X connect 59 0 29 0;
#X connect 61 0 62 0;
#X connect 62 0 65 0;
#X connect 64 0 45 0;
#X connect 65 0 69 0;
#X connect 65 0 71 0;
#X connect 65 0 73 0;
#X connect 65 0 78 0;
#X connect 65 0 79 0;
#X connect 65 0 80 0;
#X connect 68 0 48 0;
#X connect 69 0 68 0;
#X connect 70 0 49 0;
#X connect 71 0 70 0;
#X connect 72 0 74 0;
#X connect 73 0 72 0;
#X connect 74 0 46 0;
#X connect 75 0 81 0;
#X connect 76 0 50 0;
#X connect 77 0 51 0;
#X connect 78 0 75 0;
#X connect 79 0 76 0;
#X connect 80 0 77 0;
#X connect 81 0 46 0;
