#N canvas 152 22 610 675 10;
#X declare -lib mrpeach;
#X declare -lib pduino;
#N canvas 220 22 957 723 (subpatch) 0;
#X obj -35 260 metro;
#X obj 104 166 tgl 30 0 empty empty ON/OFF 0 -8 0 10 -262144 -1 -1
1 1;
#X msg -192 35 \; pd dsp 1;
#X obj -192 11 loadbang;
#X floatatom -8 240 6 0 0 0 - - -;
#N canvas 457 149 417 471 keys 0;
#X obj 109 -56 keyname;
#X symbolatom 166 -37 10 0 0 0 - - -;
#X msg 166 119 symbol 1;
#X msg 166 -14 set symbol \$1;
#X obj 166 309 outlet;
#X obj 166 142 sel + -;
#X obj 109 -34 bng 15 250 50 0 empty empty empty 17 7 0 10 -262144
-1 -1;
#X obj 109 -16 cup;
#X floatatom 109 3 5 0 0 0 - - -;
#X floatatom 109 42 5 0 0 0 - - -;
#X obj 109 22 % 2;
#X obj 109 62 sel 0;
#X obj 109 83 bng 15 250 50 0 empty empty empty 17 7 0 10 -262144 -1
-1;
#X obj 166 165 bng 15 250 50 0 empty empty empty 17 7 0 10 -262144
-1 -1;
#X obj 185 165 bng 15 250 50 0 empty empty empty 17 7 0 10 -262144
-1 -1;
#X floatatom 166 287 5 0 0 0 - - -;
#X obj 166 238 f;
#X obj 166 260 + 1;
#X obj 238 57 expr $f1 - 1;
#X obj 212 239 - 1;
#X obj 185 187 f;
#X msg 306 261 129;
#X connect 0 0 6 0;
#X connect 0 1 1 0;
#X connect 1 0 3 0;
#X connect 2 0 5 0;
#X connect 3 0 2 0;
#X connect 5 0 13 0;
#X connect 5 1 14 0;
#X connect 6 0 7 0;
#X connect 7 0 8 0;
#X connect 8 0 10 0;
#X connect 9 0 11 0;
#X connect 10 0 9 0;
#X connect 11 0 12 0;
#X connect 12 0 2 0;
#X connect 13 0 16 0;
#X connect 14 0 20 0;
#X connect 15 0 4 0;
#X connect 16 0 17 0;
#X connect 16 0 19 0;
#X connect 17 0 16 1;
#X connect 17 0 15 0;
#X connect 19 0 20 1;
#X connect 19 0 15 0;
#X connect 20 0 19 0;
#X connect 20 0 16 0;
#X connect 21 0 15 0;
#X restore 513 37 pd keys;
#X obj -8 216 expr 60000 / $f1;
#X obj 103 265 hradio 22 1 0 4 empty bpm empty 0 -8 0 10 -262144 -1
-1 1;
#X floatatom 195 393 5 0 0 0 - - -;
#X obj 195 361 + 1;
#X obj 176 557 osc~ 440;
#X obj 176 579 *~ 0.5;
#X obj 176 695 dac~;
#N canvas 313 248 563 425 envolvente 0;
#X obj 23 143 bng 15 250 50 0 empty empty empty 17 7 0 10 -262144 -1
-1;
#X floatatom 157 134 5 0 0 0 attack - -;
#X floatatom 209 171 5 0 0 0 decay - -;
#X floatatom 273 195 5 0 0 0 sustain - -;
#X floatatom 326 220 5 0 0 0 release - -;
#X obj 273 50 loadbang;
#X msg 326 200 261;
#X obj 136 252 pack 51 87 31 261;
#X obj 136 222 f 51;
#X msg 157 112 31;
#N canvas 0 22 609 699 vadsr2 0;
#X obj 147 485 vline~;
#X obj 29 425 vline~;
#X obj 147 515 dbtorms~;
#X obj 29 455 dbtorms~;
#X obj 13 515 -~;
#X obj 13 485 sig~ 1;
#X obj 152 172 rmstodb;
#X obj 86 112 max 0.1;
#X obj 333 126 max 0.1;
#X obj 145 219 t b f;
#X obj 29 22 inlet;
#X obj 84 637 outlet~;
#X obj 375 562 outlet;
#X obj 375 502 f 1;
#X obj 415 502 f 0;
#X obj 415 472 del 500;
#X msg 415 442 stop;
#X obj 376 412 t b b b;
#X text 39 319 attack decay sustain hold release;
#X obj 29 345 t a a b;
#X obj 152 142 * 0.01;
#X obj 152 112 clip 0 100;
#X obj 464 383 t b f;
#X obj 454 412 + 16;
#X obj 125 249 + 4;
#X obj 29 52 unpack f f f f;
#X obj 29 142 t a a;
#X text 79 22 attack(ms) decay(ms) sustain(%) release(ms);
#X obj 29 295 pack f f f f f;
#X obj 375 532 change 0;
#X obj 29 112 max 0;
#X msg 29 395 60 \$1 0 \, 100 0 \$1;
#X obj 147 425 t a b;
#X msg 147 455 0 \, 100 0 \$1 \, \$3 \$2 \$1 \, 0 \$5 \$4;
#X obj 214 553 snapshot~;
#X obj 214 613 -;
#X obj 214 643 rmstodb;
#X msg 214 583 1 \$1;
#X msg 397 22 version 2.0.0;
#X connect 0 0 2 0;
#X connect 1 0 3 0;
#X connect 2 0 11 0;
#X connect 2 0 34 0;
#X connect 3 0 4 1;
#X connect 4 0 11 0;
#X connect 4 0 34 0;
#X connect 5 0 4 0;
#X connect 6 0 28 2;
#X connect 7 0 9 0;
#X connect 7 0 28 1;
#X connect 8 0 22 0;
#X connect 8 0 28 4;
#X connect 9 0 24 0;
#X connect 9 1 24 1;
#X connect 10 0 25 0;
#X connect 13 0 29 0;
#X connect 14 0 29 0;
#X connect 15 0 14 0;
#X connect 16 0 15 0;
#X connect 17 0 15 0;
#X connect 17 1 13 0;
#X connect 17 2 16 0;
#X connect 19 0 31 0;
#X connect 19 1 32 0;
#X connect 19 2 17 0;
#X connect 20 0 6 0;
#X connect 21 0 20 0;
#X connect 22 0 23 0;
#X connect 22 1 23 1;
#X connect 23 0 15 1;
#X connect 24 0 23 0;
#X connect 24 0 28 3;
#X connect 25 0 30 0;
#X connect 25 1 7 0;
#X connect 25 2 21 0;
#X connect 25 3 8 0;
#X connect 26 0 28 0;
#X connect 26 1 24 0;
#X connect 28 0 19 0;
#X connect 29 0 12 0;
#X connect 30 0 26 0;
#X connect 31 0 1 0;
#X connect 32 0 33 0;
#X connect 32 1 34 0;
#X connect 33 0 0 0;
#X connect 34 0 37 0;
#X connect 35 0 36 0;
#X connect 36 0 1 0;
#X connect 37 0 35 0;
#X restore 136 299 pd vadsr2;
#X obj 23 8 inlet;
#X obj 137 376 outlet~;
#X msg 209 149 471.2;
#X msg 273 175 7;
#X connect 0 0 8 0;
#X connect 1 0 8 1;
#X connect 2 0 7 1;
#X connect 3 0 7 2;
#X connect 4 0 7 3;
#X connect 5 0 9 0;
#X connect 5 0 13 0;
#X connect 5 0 14 0;
#X connect 5 0 6 0;
#X connect 6 0 4 0;
#X connect 7 0 10 0;
#X connect 8 0 7 0;
#X connect 9 0 1 0;
#X connect 10 0 12 0;
#X connect 11 0 0 0;
#X connect 13 0 2 0;
#X connect 14 0 3 0;
#X restore 211 626 pd envolvente;
#X obj 176 643 *~;
#X obj 261 588 bng 15 250 50 0 empty empty empty 17 7 0 10 -262144
-1 -1;
#X obj 195 412 sel 1;
#X msg 223 491 0.5;
#X msg 195 431 bang;
#X msg 223 470 bang;
#X msg 196 450 1;
#X msg 176 475 880;
#X msg 261 487 440;
#X obj -35 494 outlet;
#X obj 42 285 bng 15 250 50 0 empty empty empty 17 7 0 10 -262144 -1
-1;
#X floatatom 42 244 5 0 0 0 - - -;
#X obj 42 266 sel 0;
#X msg 42 304 0;
#X floatatom 103 290 5 0 0 1 posicion - -;
#X obj -35 340 cup;
#X obj -35 472 + 1;
#X obj 103 309 tgl 20 0 empty empty MUTE 22 5 0 10 -262144 -1 -1 0
1;
#X floatatom 241 362 5 0 0 0 - - -;
#X msg 241 403 bang;
#X obj 176 669 *~;
#X msg 268 428 bang;
#X msg 241 446 0;
#X msg 268 518 0.8;
#X obj 241 381 sel 1;
#X floatatom 513 86 5 0 0 0 - - -;
#X obj 524 66 bng 15 250 50 0 empty empty empty 17 7 0 10 -262144 -1
-1;
#X obj -35 360 demux 1 2;
#X floatatom 16 341 5 0 2 0 - - -;
#X obj 16 379 mod 3;
#X obj -35 379 mod 4;
#X floatatom -35 425 5 0 0 1 Tempo_4/4 - -;
#X floatatom 16 446 5 0 0 1 Tempo_6/8 - -;
#X obj 103 234 hradio 15 1 0 2 empty empty empty 0 -8 0 10 -262144
-1 -1 0;
#X text 106 248 4;
#X text 121 248 6;
#X obj 513 106 +;
#X floatatom 513 127 5 0 0 0 - - -;
#X obj 513 145 int;
#X floatatom 104 200 5 0 0 1 BPM - -;
#X obj 11 489 s posicion;
#X obj 195 131 r posicion;
#X obj -28 405 s compas;
#X obj 103 373 r compas;
#X obj 513 164 expr 129 + $f1;
#X floatatom 513 184 5 0 0 0 - - -;
#X obj 289 458 cnv 15 10 10 empty empty SONIDO 20 12 0 14 -262144 -66577
0;
#X text 308 478 Consta de una onda seno \, con una pequeña dinamica
para el primer tiempo y los otros tres golpes con una dinamica igual.
;
#X obj -210 497 cnv 15 10 10 empty empty Metronomo 20 12 0 14 -262144
-66577 0;
#X text -191 517 Un minuto tiene 60 segundos \, pero el tiempo en pd
esta en milisegundos \, por eso tomamos el valor del BPM y lo dividimos
por 6000;
#X text 102 216 Figura;
#X obj 328 213 cnv 15 10 10 empty empty Teclado 20 12 0 14 -262144
-66577 0;
#X text 347 233 Inicializado en 129 para empezar con un BPM de tipo
House \, con las flechas + y - podemos aumentar o disminuir el BPM.
;
#X connect 0 0 29 0;
#X connect 1 0 25 0;
#X connect 1 0 0 0;
#X connect 3 0 2 0;
#X connect 4 0 0 1;
#X connect 5 0 39 0;
#X connect 5 0 40 0;
#X connect 6 0 4 0;
#X connect 7 0 9 0;
#X connect 8 0 15 0;
#X connect 8 0 16 0;
#X connect 9 0 8 0;
#X connect 10 0 11 0;
#X connect 11 0 14 0;
#X connect 13 0 14 1;
#X connect 14 0 34 0;
#X connect 15 0 13 0;
#X connect 16 0 18 0;
#X connect 16 1 19 0;
#X connect 17 0 11 1;
#X connect 18 0 20 0;
#X connect 18 0 21 0;
#X connect 19 0 17 0;
#X connect 19 0 22 0;
#X connect 20 0 11 1;
#X connect 21 0 10 0;
#X connect 22 0 10 0;
#X connect 24 0 27 0;
#X connect 25 0 26 0;
#X connect 26 0 24 0;
#X connect 27 0 29 0;
#X connect 29 0 41 0;
#X connect 30 0 23 0;
#X connect 30 0 54 0;
#X connect 31 0 32 0;
#X connect 32 0 38 0;
#X connect 33 0 36 0;
#X connect 34 0 12 1;
#X connect 34 0 12 0;
#X connect 35 0 37 0;
#X connect 36 0 34 1;
#X connect 37 0 34 1;
#X connect 38 0 33 0;
#X connect 38 1 35 0;
#X connect 39 0 50 0;
#X connect 40 0 39 0;
#X connect 41 0 44 0;
#X connect 41 1 43 0;
#X connect 42 0 41 1;
#X connect 43 0 46 0;
#X connect 43 0 56 0;
#X connect 44 0 45 0;
#X connect 44 0 56 0;
#X connect 45 0 30 0;
#X connect 46 0 30 0;
#X connect 47 0 42 0;
#X connect 50 0 51 0;
#X connect 51 0 52 0;
#X connect 52 0 58 0;
#X connect 53 0 6 0;
#X connect 55 0 28 0;
#X connect 57 0 7 0;
#X connect 58 0 59 0;
#X connect 59 0 53 0;
#X coords 0 -1 1 1 94 183 2 100 150;
#X restore -124 -234 pd;
#X obj -104 292 packOSC;
#X msg -93 356 disconect;
#X obj -104 377 udpsend;
#X obj 84 -232 import mrpeach;
#X obj -104 251 pack 0 1;
#X obj -104 230 int;
#X text 83 -216 Libreria OSC;
#X msg -93 314 bang;
#X msg -104 271 send /metronomo \$1 \$2;
#X obj -17 -232 import pduino;
#X text -20 -216 libreria Arduino;
#X obj 159 221 arduino;
#X msg 159 135 open 3;
#X text 203 135 Puerto Serial;
#X msg 136 116 pinmode 13 output;
#X text 250 115 seteamos el arduino con el pin;
#X msg 115 94 digital 13 \$1;
#X obj -124 -20 cnv 15 10 10 empty empty CONEXION_OSC 20 12 0 14 -262144
-66577 0;
#X floatatom -104 211 5 0 0 0 - - -;
#X floatatom 116 5 5 0 0 0 - - -;
#X obj 94 -19 cnv 15 10 10 empty empty CONEXION_ARDUINO 20 12 0 14
-262144 -66577 0;
#X obj -104 85 hradio 20 1 0 8 empty empty empty 0 -8 0 10 -262144
-1 -1 5;
#X obj -104 28 bng 15 250 50 0 empty empty empty 17 7 0 10 -262144
-1 -1;
#X obj -104 46 cup;
#X obj -104 66 mod 8;
#X obj -104 185 spigot;
#X obj -71 164 tgl 15 0 empty empty Establecer_conexion 17 7 0 10 -262144
-1 -1 1 1;
#X msg 242 205 close;
#X msg 242 180 devices;
#X obj 115 68 tgl 15 0 empty empty empty 17 7 0 10 -262144 -1 -1 0
1;
#X obj 116 44 spigot;
#X obj 149 26 tgl 15 0 empty empty Establecer_conexion 17 7 0 10 -262144
-1 -1 0 1;
#X obj -124 -47 s BPM;
#X obj -104 109 + 1;
#X text -66 67 step secuencer 16;
#X floatatom -104 128 5 0 0 0 - - -;
#X obj -104 5 r BPM;
#X msg -93 336 connect localhost 8000;
#X text -59 313 -> click para conectar con processing !;
#X connect 0 0 33 0;
#X connect 1 0 3 0;
#X connect 2 0 3 0;
#X connect 5 0 9 0;
#X connect 6 0 5 0;
#X connect 8 0 38 0;
#X connect 9 0 1 0;
#X connect 13 0 12 0;
#X connect 15 0 12 0;
#X connect 17 0 12 0;
#X connect 19 0 6 0;
#X connect 20 0 31 0;
#X connect 22 0 34 0;
#X connect 23 0 24 0;
#X connect 24 0 25 0;
#X connect 25 0 22 0;
#X connect 26 0 19 0;
#X connect 27 0 26 1;
#X connect 28 0 12 0;
#X connect 29 0 12 0;
#X connect 30 0 17 0;
#X connect 32 0 31 1;
#X connect 34 0 36 0;
#X connect 36 0 26 0;
#X connect 37 0 23 0;
#X connect 38 0 3 0;
