#N canvas 88 22 552 437 10;
#X declare -lib mrpeach;
#N canvas 1688 55 508 732 (subpatch) 0;
#X obj 30 283 metro;
#X obj 104 207 nbx 3 18 70 300 0 0 empty empty BPM 0 -6 0 10 -262144
-1 -1 70 256;
#X obj 104 167 tgl 25 0 empty empty ON/OFF 0 -8 0 10 -262144 -1 -1
0 1;
#X msg 24 46 \; pd dsp 1;
#X obj 24 22 loadbang;
#X floatatom 247 267 6 0 0 0 - - -;
#N canvas 2481 126 417 471 keys 0;
#X obj 109 -56 keyname;
#X symbolatom 166 -37 10 0 0 0 - - -;
#X msg 166 119 symbol Meta_L;
#X msg 166 -14 set symbol \$1;
#X obj 166 309 outlet;
#X obj 166 142 sel + -;
#X obj 109 -34 bng 15 250 50 0 empty empty empty 17 7 0 10 -262144
-1 -1;
#X obj 109 -16 cup;
#X floatatom 109 3 5 0 0 0 - - -;
#X floatatom 109 42 5 0 0 0 - - -;
#X obj 109 22 % 2;
#X obj 109 62 sel 0;
#X obj 109 83 bng 15 250 50 0 empty empty empty 17 7 0 10 -262144 -1
-1;
#X obj 166 165 bng 15 250 50 0 empty empty empty 17 7 0 10 -262144
-1 -1;
#X obj 185 165 bng 15 250 50 0 empty empty empty 17 7 0 10 -262144
-1 -1;
#X floatatom 166 287 5 0 0 0 - - -;
#X obj 166 238 f;
#X obj 166 260 + 1;
#X obj 238 57 expr $f1 - 1;
#X obj 212 239 - 1;
#X obj 185 187 f;
#X connect 0 0 6 0;
#X connect 0 1 1 0;
#X connect 1 0 3 0;
#X connect 2 0 5 0;
#X connect 3 0 2 0;
#X connect 5 0 13 0;
#X connect 5 1 14 0;
#X connect 6 0 7 0;
#X connect 7 0 8 0;
#X connect 8 0 10 0;
#X connect 9 0 11 0;
#X connect 10 0 9 0;
#X connect 11 0 12 0;
#X connect 12 0 2 0;
#X connect 13 0 16 0;
#X connect 14 0 20 0;
#X connect 15 0 4 0;
#X connect 16 0 17 0;
#X connect 16 0 19 0;
#X connect 17 0 16 1;
#X connect 17 0 15 0;
#X connect 19 0 20 1;
#X connect 19 0 15 0;
#X connect 20 0 19 0;
#X connect 20 0 16 0;
#X restore 269 120 pd keys;
#X obj 247 225 expr 60000 / $f1;
#X obj 104 229 hradio 22 1 0 4 empty bpm empty 0 -8 0 10 -262144 -1
-1 2;
#X floatatom 104 317 5 0 0 0 - - -;
#X obj 104 296 + 1;
#X obj 84 481 osc~ 440;
#X obj 84 503 *~ 0.5;
#X obj 84 619 dac~;
#N canvas 1568 616 563 425 envolvente 0;
#X obj 23 143 bng 15 250 50 0 empty empty empty 17 7 0 10 -262144 -1
-1;
#X floatatom 157 134 5 0 0 0 attack - -;
#X floatatom 209 171 5 0 0 0 decay - -;
#X floatatom 273 195 5 0 0 0 sustain - -;
#X floatatom 326 220 5 0 0 0 release - -;
#X obj 273 50 loadbang;
#X msg 326 200 261;
#X obj 136 252 pack 51 87 31 261;
#X obj 136 222 f 51;
#X msg 157 112 31;
#N canvas 0 22 609 699 vadsr2 0;
#X obj 147 485 vline~;
#X obj 29 425 vline~;
#X obj 147 515 dbtorms~;
#X obj 29 455 dbtorms~;
#X obj 13 515 -~;
#X obj 13 485 sig~ 1;
#X obj 152 172 rmstodb;
#X obj 86 112 max 0.1;
#X obj 333 126 max 0.1;
#X obj 145 219 t b f;
#X obj 29 22 inlet;
#X obj 84 637 outlet~;
#X obj 375 562 outlet;
#X obj 375 502 f 1;
#X obj 415 502 f 0;
#X obj 415 472 del 500;
#X msg 415 442 stop;
#X obj 376 412 t b b b;
#X text 39 319 attack decay sustain hold release;
#X obj 29 345 t a a b;
#X obj 152 142 * 0.01;
#X obj 152 112 clip 0 100;
#X obj 464 383 t b f;
#X obj 454 412 + 16;
#X obj 125 249 + 4;
#X obj 29 52 unpack f f f f;
#X obj 29 142 t a a;
#X text 79 22 attack(ms) decay(ms) sustain(%) release(ms);
#X obj 29 295 pack f f f f f;
#X obj 375 532 change 0;
#X obj 29 112 max 0;
#X msg 29 395 60 \$1 0 \, 100 0 \$1;
#X obj 147 425 t a b;
#X msg 147 455 0 \, 100 0 \$1 \, \$3 \$2 \$1 \, 0 \$5 \$4;
#X obj 214 553 snapshot~;
#X obj 214 613 -;
#X obj 214 643 rmstodb;
#X msg 214 583 1 \$1;
#X msg 397 22 version 2.0.0;
#X connect 0 0 2 0;
#X connect 1 0 3 0;
#X connect 2 0 11 0;
#X connect 2 0 34 0;
#X connect 3 0 4 1;
#X connect 4 0 11 0;
#X connect 4 0 34 0;
#X connect 5 0 4 0;
#X connect 6 0 28 2;
#X connect 7 0 9 0;
#X connect 7 0 28 1;
#X connect 8 0 22 0;
#X connect 8 0 28 4;
#X connect 9 0 24 0;
#X connect 9 1 24 1;
#X connect 10 0 25 0;
#X connect 13 0 29 0;
#X connect 14 0 29 0;
#X connect 15 0 14 0;
#X connect 16 0 15 0;
#X connect 17 0 15 0;
#X connect 17 1 13 0;
#X connect 17 2 16 0;
#X connect 19 0 31 0;
#X connect 19 1 32 0;
#X connect 19 2 17 0;
#X connect 20 0 6 0;
#X connect 21 0 20 0;
#X connect 22 0 23 0;
#X connect 22 1 23 1;
#X connect 23 0 15 1;
#X connect 24 0 23 0;
#X connect 24 0 28 3;
#X connect 25 0 30 0;
#X connect 25 1 7 0;
#X connect 25 2 21 0;
#X connect 25 3 8 0;
#X connect 26 0 28 0;
#X connect 26 1 24 0;
#X connect 28 0 19 0;
#X connect 29 0 12 0;
#X connect 30 0 26 0;
#X connect 31 0 1 0;
#X connect 32 0 33 0;
#X connect 32 1 34 0;
#X connect 33 0 0 0;
#X connect 34 0 37 0;
#X connect 35 0 36 0;
#X connect 36 0 1 0;
#X connect 37 0 35 0;
#X restore 136 299 pd vadsr2;
#X obj 23 8 inlet;
#X obj 137 376 outlet~;
#X msg 209 149 562.2;
#X msg 273 175 1;
#X connect 0 0 8 0;
#X connect 1 0 8 1;
#X connect 2 0 7 1;
#X connect 3 0 7 2;
#X connect 4 0 7 3;
#X connect 5 0 9 0;
#X connect 5 0 13 0;
#X connect 5 0 14 0;
#X connect 5 0 6 0;
#X connect 6 0 4 0;
#X connect 7 0 10 0;
#X connect 8 0 7 0;
#X connect 9 0 1 0;
#X connect 10 0 12 0;
#X connect 11 0 0 0;
#X connect 13 0 2 0;
#X connect 14 0 3 0;
#X restore 119 550 pd envolvente;
#X obj 84 567 *~;
#X obj 169 512 bng 15 250 50 0 empty empty empty 17 7 0 10 -262144
-1 -1;
#X obj 104 336 sel 1;
#X msg 131 415 0.5;
#X msg 104 355 bang;
#X msg 131 394 bang;
#X msg 104 374 1;
#X msg 84 399 880;
#X msg 169 411 440;
#X obj 262 550 outlet;
#X obj 378 241 bng 15 250 50 0 empty empty empty 17 7 0 10 -262144
-1 -1;
#X floatatom 378 192 5 0 0 0 - - -;
#X obj 378 219 sel 0;
#X msg 378 288 0;
#X floatatom 104 254 5 0 0 0 - - -;
#X obj 30 305 cup;
#X obj 262 528 + 1;
#X obj 149 255 tgl 15 0 empty empty MUTE 17 7 0 10 -262144 -1 -1 1
1;
#X floatatom 149 286 5 0 0 0 - - -;
#X msg 149 327 bang;
#X obj 84 593 *~;
#X msg 176 352 bang;
#X msg 149 370 0;
#X msg 176 442 0.8;
#X obj 149 305 sel 1;
#X floatatom 384 150 5 0 0 0 - - -;
#X obj 441 99 bng 15 250 50 0 empty empty empty 17 7 0 10 -262144 -1
-1;
#X obj 262 464 demux 1 2;
#X floatatom 313 445 5 0 2 0 - - -;
#X obj 313 483 mod 3;
#X obj 262 483 mod 4;
#X floatatom 262 502 5 0 0 0 - - -;
#X floatatom 313 502 5 0 0 0 - - -;
#X obj 153 169 hradio 15 1 0 2 empty empty empty 0 -8 0 10 -262144
-1 -1 0;
#X text 157 184 4;
#X text 172 184 6;
#X text 147 149 Compas;
#X text 158 202 BPM;
#X connect 0 0 30 0;
#X connect 1 0 7 0;
#X connect 2 0 1 0;
#X connect 2 0 0 0;
#X connect 2 0 26 0;
#X connect 4 0 3 0;
#X connect 5 0 0 1;
#X connect 6 0 40 0;
#X connect 6 0 41 0;
#X connect 7 0 5 0;
#X connect 8 0 10 0;
#X connect 9 0 16 0;
#X connect 9 0 17 0;
#X connect 10 0 9 0;
#X connect 11 0 12 0;
#X connect 12 0 15 0;
#X connect 14 0 15 1;
#X connect 15 0 35 0;
#X connect 16 0 14 0;
#X connect 17 0 19 0;
#X connect 17 1 20 0;
#X connect 18 0 12 1;
#X connect 19 0 21 0;
#X connect 19 0 22 0;
#X connect 20 0 18 0;
#X connect 20 0 23 0;
#X connect 21 0 12 1;
#X connect 22 0 11 0;
#X connect 23 0 11 0;
#X connect 25 0 28 0;
#X connect 26 0 27 0;
#X connect 27 0 25 0;
#X connect 28 0 30 0;
#X connect 30 0 42 0;
#X connect 31 0 29 0;
#X connect 31 0 24 0;
#X connect 32 0 33 0;
#X connect 33 0 39 0;
#X connect 34 0 37 0;
#X connect 35 0 13 1;
#X connect 35 0 13 0;
#X connect 36 0 38 0;
#X connect 37 0 35 1;
#X connect 38 0 35 1;
#X connect 39 0 34 0;
#X connect 39 1 36 0;
#X connect 41 0 40 0;
#X connect 42 0 45 0;
#X connect 42 1 44 0;
#X connect 43 0 42 1;
#X connect 44 0 47 0;
#X connect 44 0 8 0;
#X connect 45 0 46 0;
#X connect 45 0 8 0;
#X connect 46 0 31 0;
#X connect 47 0 31 0;
#X connect 48 0 43 0;
#X coords 0 -1 1 1 100 125 2 100 150;
#X restore -127 -188 pd;
#X floatatom -127 -54 5 0 0 0 - - -;
#X obj -127 79 packOSC;
#X msg -105 155 disconect;
#X obj -127 181 udpsend;
#X floatatom -127 -32 5 0 0 0 - - -;
#X text -70 35 Empaquetamos por si necesitamos enviar mas datos;
#X text 6 57 Formato de datos que espera processing;
#X text -77 75 Empaquetamos los datos \, convirtiendolos en mensajes
OSC;
#X text -75 177 Enviamos los datos a processing ENJOY :);
#X obj 673 -185 import mrpeach;
#X text 31 126 Nos conectamos con la red interna del mac;
#X obj -127 32 pack 0 1;
#X obj -127 10 int;
#X text 671 -166 Libreria OSC;
#X msg -116 104 bang;
#X text -89 -30 Dato a enviarse a a cualquier parte -> en este caso
processing :);
#X msg -116 126 connect localhost 12001;
#X msg -127 57 send /metronomo \$1 \$2;
#X connect 0 0 1 0;
#X connect 1 0 5 0;
#X connect 2 0 4 0;
#X connect 3 0 4 0;
#X connect 5 0 13 0;
#X connect 12 0 18 0;
#X connect 13 0 12 0;
#X connect 15 0 17 0;
#X connect 17 0 4 0;
#X connect 18 0 2 0;
